<?xml version="1.0" standalone="no"?>
<!DOCTYPE svg PUBLIC "-//W3C//DTD SVG 20010904//EN"
 "http://www.w3.org/TR/2001/REC-SVG-20010904/DTD/svg10.dtd">
<svg version="1.0" xmlns="http://www.w3.org/2000/svg"
 width="900.000000pt" height="980.000000pt" viewBox="0 0 900.000000 980.000000"
 preserveAspectRatio="xMidYMid meet">
<metadata>
Created by potrace 1.15, written by Peter Selinger 2001-2017
</metadata>
<g transform="translate(0.000000,980.000000) scale(0.100000,-0.100000)"
fill="#000000" stroke="none">
<path d="M5460 9748 c260 -114 362 -213 429 -418 43 -132 45 -288 5 -443 -12
-49 -14 -71 -6 -79 8 -8 10 -4 6 13 -4 24 -4 24 7 2 10 -19 6 -30 -31 -85
-107 -159 -279 -340 -448 -473 -69 -54 -102 -86 -102 -100 1 -20 1 -20 15 -1
8 11 15 16 15 12 0 -15 167 122 273 223 117 113 229 246 300 356 100 157 195
383 178 428 -7 18 -13 9 -34 -58 l-25 -80 3 75 c8 234 -122 443 -345 553 -52
25 -129 55 -170 67 -81 22 -110 25 -70 8z"/>
<path d="M3821 8883 c5 -33 -2 -36 -78 -31 -43 2 -70 3 -60 0 24 -5 22 -10
-22 -94 -82 -153 -164 -397 -220 -655 -41 -186 -39 -212 3 -48 71 278 148 492
242 676 l57 111 36 -6 c29 -4 39 -2 49 14 7 11 22 20 35 20 18 0 19 2 7 10
-18 12 -51 13 -49 3z"/>
<path d="M5632 8339 c-48 -45 -118 -107 -155 -137 -37 -30 -66 -56 -64 -58 2
-2 31 5 66 16 208 63 321 38 321 -71 0 -37 -38 -154 -64 -194 -78 -124 -64
-125 19 -1 63 95 145 262 145 297 0 20 -79 134 -105 151 -27 17 -54 46 -48 51
3 4 -4 4 -17 2 -18 -3 -20 -2 -10 10 31 37 -8 8 -88 -66z"/>
<path d="M5244 8121 c5 -8 -10 -16 -50 -26 -6 -1 -29 -14 -51 -28 -248 -157
-872 -414 -942 -388 -14 5 -20 10 -13 10 7 1 10 6 6 13 -5 8 -1 9 12 4 15 -6
17 -5 7 5 -9 9 -13 51 -13 137 0 142 12 134 -114 81 -140 -59 -390 -215 -499
-311 -45 -40 -48 -45 -38 -70 10 -27 9 -28 -23 -28 -25 0 -38 7 -51 26 -29 45
-87 104 -102 104 -14 0 -63 -92 -63 -119 0 -10 11 -12 43 -9 23 3 56 0 72 -4
43 -13 190 -10 308 7 309 43 655 146 977 289 244 109 558 286 544 307 -3 5 -7
9 -10 9 -3 0 -3 -4 0 -9z"/>
<path d="M4654 7723 c-195 -74 -491 -158 -709 -202 -83 -16 -376 -61 -402 -61
-5 0 -19 -16 -33 -36 l-24 -36 29 -24 c44 -36 209 -118 295 -147 126 -43 265
-67 425 -74 120 -5 143 -8 115 -16 -21 -5 -97 -6 -185 -2 -82 4 -168 8 -190 8
l-40 2 -7 -70 c-4 -38 -14 -135 -23 -215 -8 -80 -55 -539 -105 -1020 -49 -481
-99 -963 -110 -1070 -11 -107 -45 -436 -75 -730 -59 -573 -82 -790 -91 -857
l-5 -43 149 0 c82 0 164 3 181 6 28 6 31 10 31 43 0 52 -9 60 -75 63 l-60 3
-5 683 c-3 445 -2 686 5 693 6 6 6 12 0 17 -6 4 -11 27 -12 52 -2 34 0 41 8
30 8 -12 9 -11 5 5 -8 32 -10 120 -3 132 4 6 2 13 -5 15 -7 3 -9 12 -5 22 4
10 9 68 11 129 5 122 17 240 106 1062 62 567 77 699 86 773 7 52 1 52 208 6
191 -42 378 -103 535 -173 l114 -51 -6 138 c-19 395 -20 501 -7 517 11 14 14
13 27 -2 13 -16 13 -16 4 4 -6 12 -11 59 -11 105 0 46 -7 128 -16 183 -9 55
-17 110 -18 123 0 12 -5 22 -11 23 -5 0 -1 4 9 8 19 7 19 8 0 13 -12 3 -61
-10 -110 -29z"/>
<path d="M5058 7284 c-15 -8 -74 -30 -130 -49 l-103 -35 2 -152 c1 -84 9 -286
18 -448 17 -346 39 -771 60 -1205 15 -313 33 -668 60 -1200 8 -159 22 -441 30
-625 9 -184 18 -359 21 -387 l5 -53 108 0 c59 0 110 2 112 4 5 5 -20 355 -47
656 -7 85 -34 435 -49 640 -8 113 -17 228 -20 255 -3 28 -10 109 -15 180 -11
159 -46 605 -60 775 -12 147 -46 579 -60 765 -9 113 -21 272 -35 451 -4 49 -3
51 56 117 44 49 61 75 61 97 1 17 3 28 6 25 3 -3 11 0 18 6 10 8 12 32 7 92
-7 103 -10 109 -45 91z"/>
<path d="M4277 5340 c-26 -26 -57 -45 -94 -57 -51 -16 -58 -16 -101 -1 -25 10
-48 15 -51 13 -2 -3 -7 -132 -11 -287 -4 -208 -3 -291 6 -314 15 -39 56 -71
108 -84 66 -17 115 -41 146 -73 l29 -30 35 31 c20 17 55 36 78 42 24 6 61 16
82 22 22 5 51 17 64 26 48 32 52 59 52 378 0 278 -1 296 -17 289 -92 -38 -173
-23 -241 45 -22 22 -41 40 -43 40 -2 -1 -21 -18 -42 -40z m114 -71 c16 -31 6
-101 -20 -137 -12 -18 -41 -38 -67 -48 -58 -22 -66 -12 -61 68 3 61 19 86 72
119 39 25 62 24 76 -2z m37 -236 l152 -6 0 -164 c0 -90 -4 -172 -10 -182 -11
-21 -40 -34 -129 -56 -36 -8 -80 -27 -99 -41 l-34 -26 -26 25 c-30 28 -79 51
-134 61 -21 4 -51 18 -68 32 l-30 26 0 153 c0 84 3 160 6 169 7 18 108 21 372
9z"/>
<path d="M4088 4889 c3 -88 1 -127 -8 -145 -16 -29 -8 -39 37 -49 l32 -6 -5
73 -4 73 24 -79 c22 -71 37 -95 58 -96 3 0 9 64 11 143 3 78 8 157 12 175 7
31 7 32 -28 32 -37 0 -57 -24 -37 -44 5 -5 10 -37 9 -70 l-1 -61 -13 45 c-8
25 -19 64 -25 88 -9 37 -14 42 -39 42 l-28 0 5 -121z"/>
<path d="M4278 4854 c3 -107 1 -159 -7 -167 -19 -19 -13 -36 19 -52 16 -8 33
-15 38 -15 5 0 7 44 4 101 l-5 101 32 -7 c30 -6 31 -6 31 29 0 34 -20 61 -28
38 -2 -7 -10 -12 -18 -12 -10 0 -14 13 -14 45 0 34 4 45 15 45 9 0 18 -7 21
-15 12 -29 34 -16 34 19 0 38 -15 46 -85 46 l-41 0 4 -156z"/>
<path d="M4425 4968 c10 -45 6 -251 -6 -262 -5 -6 -9 -18 -9 -29 0 -20 14 -19
105 7 39 12 40 12 43 64 3 47 1 52 -17 52 -16 0 -21 -6 -21 -29 0 -24 -14 -41
-36 -41 -9 0 -3 219 6 225 6 3 10 15 10 26 0 16 -7 19 -41 19 l-41 0 7 -32z"/>
<path d="M4648 5268 c-1 -2 -4 -139 -7 -305 l-6 -302 -30 -32 c-21 -22 -24
-28 -10 -21 11 6 33 24 49 41 28 29 30 38 34 121 9 195 -10 524 -30 498z"/>
<path d="M1600 3022 c-76 -7 -129 -81 -115 -162 10 -57 52 -96 118 -109 28 -6
93 -19 142 -29 84 -17 90 -20 90 -42 l0 -25 -167 -3 -168 -2 0 -55 0 -55 171
0 c199 0 227 8 261 73 30 59 21 121 -24 162 -29 27 -51 35 -154 55 -155 30
-166 34 -162 63 3 22 5 22 171 25 l167 2 0 50 0 49 -147 3 c-82 2 -164 2 -183
0z"/>
<path d="M2114 3021 c-9 -9 -3 -342 7 -368 14 -38 57 -83 96 -99 21 -9 71 -14
141 -14 134 0 182 20 219 90 21 40 23 55 23 217 0 131 -3 173 -12 174 -7 1
-31 1 -53 2 l-40 0 -5 -170 c-4 -123 -9 -175 -19 -187 -11 -13 -33 -16 -117
-16 -138 0 -134 -6 -134 207 0 156 -1 163 -20 164 -56 4 -82 4 -86 0z"/>
<path d="M2810 3022 c-6 -2 -10 -94 -10 -243 l0 -239 55 0 55 0 0 74 0 74 130
4 130 3 37 38 c36 36 38 40 41 115 2 63 -1 83 -17 109 -36 58 -50 62 -239 65
-95 2 -177 2 -182 0z m325 -162 l0 -55 -112 -3 -113 -3 0 61 0 61 113 -3 112
-3 0 -55z"/>
<path d="M3519 3018 c-17 -3 -46 -20 -63 -37 l-31 -31 -3 -154 c-4 -173 3
-201 61 -236 28 -18 51 -20 205 -20 l172 0 0 55 0 55 -162 2 -163 3 -3 38 -3
37 155 0 156 0 0 55 0 55 -156 0 -155 0 3 38 3 37 163 3 163 3 -3 49 -3 50
-152 3 c-84 1 -167 -1 -184 -5z"/>
<path d="M4044 3021 c-2 -2 -4 -112 -4 -243 l0 -238 55 0 55 0 0 75 0 75 93 0
94 0 47 -75 48 -75 65 0 65 0 -18 28 c-9 15 -33 51 -52 80 l-35 53 21 15 c37
26 52 68 52 146 0 78 -19 126 -59 148 -19 10 -417 20 -427 11z m376 -161 l0
-60 -135 0 -135 0 0 60 0 60 135 0 135 0 0 -60z"/>
<path d="M5054 3021 c-2 -2 -4 -112 -4 -243 l0 -238 183 0 c207 0 239 8 269
70 22 43 23 115 3 153 -11 22 -12 34 -4 49 6 12 9 47 7 81 -4 54 -8 63 -41 93
-20 19 -47 34 -59 34 -13 0 -97 1 -186 3 -90 1 -166 0 -168 -2z m344 -143 l3
-38 -120 0 -121 0 0 40 0 41 118 -3 117 -3 3 -37z m7 -188 l0 -35 -122 -3
-123 -3 0 41 0 41 123 -3 122 -3 0 -35z"/>
<path d="M5910 3021 c-81 -4 -122 -11 -137 -22 -60 -42 -83 -105 -82 -224 0
-95 24 -160 72 -199 39 -31 40 -31 175 -34 128 -3 140 -2 181 20 71 38 91 86
91 219 0 114 -8 150 -43 187 -49 52 -90 61 -257 53z m168 -117 c20 -14 22 -23
22 -116 0 -138 0 -138 -144 -138 -61 0 -116 4 -122 8 -24 16 -34 54 -34 130 0
65 4 84 21 106 20 25 24 26 128 26 80 0 112 -4 129 -16z"/>
<path d="M6369 3022 l-25 -3 63 -227 c62 -224 75 -252 113 -252 27 0 44 27
101 163 29 70 56 127 59 127 3 0 30 -59 60 -131 66 -158 87 -181 133 -146 16
12 144 453 134 463 -2 3 -26 6 -53 7 l-48 2 -35 -132 c-20 -73 -38 -133 -41
-133 -3 0 -28 52 -54 115 -53 126 -72 151 -109 141 -20 -5 -34 -28 -76 -122
-28 -64 -51 -120 -51 -125 0 -5 -4 -9 -9 -9 -5 0 -23 55 -41 123 -17 67 -35
126 -40 130 -9 10 -44 14 -81 9z"/>
<path d="M7184 3021 c-2 -2 -4 -96 -4 -209 l0 -204 34 -34 34 -34 166 0 166 0
0 55 0 55 -145 0 -145 0 0 88 c0 48 -3 130 -7 184 l-6 96 -44 4 c-24 2 -46 1
-49 -1z"/>
<path d="M920 2422 c0 -4 52 -71 115 -147 68 -83 109 -141 101 -143 -7 -2 -75
9 -151 23 -76 14 -140 25 -142 25 -2 0 103 -123 233 -272 130 -150 241 -273
247 -273 6 0 119 124 251 275 l241 275 413 3 c226 1 412 0 412 -4 0 -3 -203
-239 -451 -525 -295 -340 -447 -523 -442 -532 4 -6 62 -75 128 -152 67 -77
233 -270 370 -430 325 -378 387 -449 396 -453 5 -2 356 215 377 233 1 1 -10
38 -25 81 l-28 79 -3 853 -3 852 316 0 315 0 2 -757 3 -758 668 -3 667 -2 0
-91 0 -90 148 -194 147 -195 5 1043 5 1042 360 0 360 0 5 -939 5 -939 190
-108 c105 -60 195 -108 200 -108 10 0 897 1021 903 1039 2 5 -81 106 -185 225
-103 120 -226 261 -273 315 -343 395 -440 508 -440 514 0 3 186 6 413 6 l412
0 244 -280 c134 -154 247 -280 251 -280 7 0 417 466 463 526 23 30 27 30 -145
0 -76 -12 -138 -19 -138 -15 0 5 46 66 102 136 55 71 105 134 111 141 8 9
-708 12 -3572 12 -1969 0 -3581 -4 -3581 -8z"/>
<path d="M1076 368 c-131 -155 -232 -279 -225 -276 8 3 181 49 384 103 204 54
373 101 378 105 7 6 -279 351 -292 349 -3 0 -113 -127 -245 -281z"/>
<path d="M7527 479 c-81 -95 -146 -173 -145 -175 3 -3 702 -198 753 -210 l30
-7 -42 49 c-145 173 -435 509 -441 512 -4 1 -74 -75 -155 -169z"/>
</g>
</svg>
