<?xml version="1.0" encoding="iso-8859-1"?>
<!-- Generator: Adobe Illustrator 14.0.0, SVG Export Plug-In . SVG Version: 6.00 Build 43363)  -->
<!DOCTYPE svg PUBLIC "-//W3C//DTD SVG 1.1//EN" "http://www.w3.org/Graphics/SVG/1.1/DTD/svg11.dtd">
<svg version="1.1" id="Layer_1" xmlns="http://www.w3.org/2000/svg" xmlns:xlink="http://www.w3.org/1999/xlink" x="0px" y="0px"
	 width="250px" height="150px" viewBox="0 0 250 150" style="enable-background:new 0 0 250 150;" xml:space="preserve">
<g>
	<path style="fill:#1A3F72;" d="M204.121,97.571l16.853-28.262c-0.118-0.029-18.345-4.401-28.036-5.978
		c-1.062-0.97-11.493-10.491-11.493-10.491l-0.704-0.263c-0.028-0.009-2.573-0.954-6.816-2.263c0-3.191,0-16.685,0-16.685h-7.492
		l-3.19,3.038c0,0,0,6.375,0,10.67c-10.315-2.591-24.404-5.299-38.263-5.299c-13.86,0-27.949,2.708-38.267,5.298
		c0-4.295,0-10.671,0-10.671l-3.188-3.037h-7.492c0,0,0,13.495,0,16.686c-4.243,1.309-6.788,2.253-6.815,2.263l-0.706,0.263
		c0,0-10.431,9.521-11.493,10.491c-9.692,1.577-27.916,5.949-28.037,5.978l0.005,0.001H28.98l16.8,28.268l-34.677,30.013h33.934
		c-0.173-1.054,0.051-2.369,1.384-3.603l3.495-3.083c21.882,19.07,56.976,27.906,102.947,12.837
		c24.367-7.988,35.002-11.174,52.411-6.151l33.612-0.004L204.121,97.571"/>
	<path style="fill:#87AFDD;" d="M128.804,59.704c3.553,0.083,7.399,0.271,11.362,0.53l-5.361-9.129L128.804,59.704 M140.255,50.741
		l4.548,7.747l5.212-6.215C146.884,51.688,143.606,51.162,140.255,50.741z M164.628,59.999v-4.38
		c-0.958-0.258-1.954-0.519-2.986-0.779L164.628,59.999z M149.545,60.951c3.395,0.292,6.782,0.618,10.051,0.953l-4.435-7.656
		L149.545,60.951z M177.43,59.581l-3.962,3.87c3.827,0.459,7.101,0.876,9.509,1.193C180.341,62.237,177.903,60.01,177.43,59.581z
		 M124.978,49.724c-2.157,0-4.318,0.071-6.472,0.197l6.472,9.268l6.471-9.268C129.297,49.795,127.135,49.724,124.978,49.724z
		 M171.253,57.525v3.294l2.551-2.491C173.04,58.083,172.188,57.813,171.253,57.525z M78.702,60.82v-3.294
		c-0.935,0.287-1.79,0.558-2.551,0.803L78.702,60.82z M109.788,60.234c3.963-0.259,7.81-0.448,11.366-0.53l-6.006-8.599
		L109.788,60.234z M66.978,64.644c2.41-0.317,5.682-0.734,9.509-1.193l-3.963-3.87C72.054,60.01,69.613,62.237,66.978,64.644z
		 M90.359,61.903c3.271-0.334,6.654-0.661,10.051-0.953l-5.617-6.704L90.359,61.903z M85.327,59.999l2.987-5.159
		c-1.032,0.26-2.029,0.521-2.987,0.779V59.999z M105.15,58.488l4.55-7.747c-3.354,0.42-6.63,0.947-9.76,1.532L105.15,58.488z"/>
	<path style="fill:#F3A549;" d="M179.274,57.781c1.445,1.32,5.45,4.975,8.181,7.467c-0.006-0.001-0.012-0.001-0.016-0.002
		c0,0-5.678-0.801-13.972-1.796L179.274,57.781 M171.253,54.843c2.423,0.731,4.355,1.366,5.678,1.815l-5.678,5.544V54.843z
		 M159.86,51.762c2.156,0.519,4.183,1.042,6.055,1.551v8.905L159.86,51.762z M148.34,60.848l8.246-9.842
		c0.004,0.002,0.01,0.003,0.016,0.004l6.521,11.263C158.418,61.769,153.378,61.272,148.34,60.848z M138.622,47.961
		c5.334,0.599,10.505,1.479,15.265,2.467l-8.124,9.693L138.622,47.961z M127.616,59.679l8.177-11.711l7.324,12.469
		C137.665,60.041,132.353,59.759,127.616,59.679z M116.783,47.455c2.722-0.194,5.463-0.303,8.192-0.303
		c2.731,0,5.473,0.109,8.197,0.303l-8.195,11.734L116.783,47.455z M106.839,60.437l7.321-12.469l8.18,11.711
		C117.603,59.759,112.291,60.041,106.839,60.437z M96.068,50.427c4.761-0.987,9.933-1.869,15.266-2.466l-7.142,12.16L96.068,50.427z
		 M86.832,62.273l6.522-11.263c0.006-0.001,0.011-0.002,0.016-0.004l8.245,9.842C96.574,61.272,91.536,61.768,86.832,62.273z
		 M84.042,53.313c1.871-0.509,3.897-1.033,6.054-1.551l-6.054,10.456V53.313z M73.025,56.658c1.323-0.449,3.256-1.084,5.677-1.815
		v7.359L73.025,56.658z M62.518,65.247c-0.006,0.001-0.012,0.001-0.018,0.002c2.73-2.493,6.734-6.147,8.182-7.467l5.806,5.669
		C68.194,64.445,62.518,65.247,62.518,65.247z M213.756,70.341c0,0-12.182-2.952-22.028-4.5l-11.702-10.679l-0.223-0.083
		c-0.091-0.035-3.309-1.221-8.55-2.781V36.301h-3.752l-1.586,1.511v12.973c-10.622-2.853-25.942-6.078-40.937-6.078h-0.004
		c-14.994,0-30.312,3.225-40.933,6.078V37.808l-1.586-1.51h-3.753v16c-5.243,1.56-8.458,2.746-8.552,2.781l-0.221,0.083
		L58.228,65.84c-9.843,1.548-22.029,4.5-22.029,4.5l26.37-2.917c0,0,6.681-0.882,16.134-1.921v4.837h5.339v-5.408
		c12.957-1.346,29.177-2.736,40.934-2.736c11.758,0,27.982,1.39,40.939,2.736v5.412h5.338v-4.841
		c9.453,1.039,16.133,1.921,16.133,1.921L213.756,70.341z"/>
	<path style="fill:#87AFDD;" d="M169.953,112.316l-4.347-25.596c-0.221-1.263,0.204-2.401,1.054-3.245h-11.598
		c1.106,0.843,1.876,1.982,2.042,3.245l3.481,25.582c0.209,1.568-0.321,3.017-1.315,4.109h13.215
		C171.16,115.318,170.223,113.885,169.953,112.316"/>
	<path style="fill:#87AFDD;" d="M73.121,115.241L62.625,98.872l14.85-13.124c0.712-0.131,1.437-0.282,2.174-0.449l0.048-0.012
		L89.85,98.854L73.121,115.241 M115.28,84.437l13.013,14.435l-14.208,16.305l-12.937-16.32L115.28,84.437z M227.866,123.764
		l-29.273-24.892l13.379-22.16h-13.648c1.698,1.475,1.499,2.765,0.497,4.393l-7.517,11.568l-5.411-4.599
		c-0.371-0.319-0.714-0.627-1.021-0.925c1.692-3.03,3.89-6.96,3.89-6.96c0.018-0.047,0.027-0.116,0.027-0.202
		c0-0.644-0.625-2.317-3.64-4.915c-5.786-4.991-22.907-16.558-56.826-16.125c-14.189,0.179-26.312,4.266-37.011,7.87
		c-11.777,3.965-22.116,7.548-30.859,3.982c-0.652-0.264-1.592-0.862-1.592-0.862l-0.007,12.485c0,0,0.555,2.673,7.241,3.576
		c-0.458,0.655-1.173,1.331-2.035,2.076l-5.411,4.599L51.13,81.105c-1.002-1.628-1.199-2.918,0.499-4.393H37.978l13.379,22.16
		l-29.271,24.892h16.342c-0.819-2.091,0.445-3.866,2.871-6.042l13.947-12.334l3.157,5.291c1.194,2.063,1.473,3.754-0.442,5.732
		h29.914c-1.152-1.979-0.273-3.669,1.712-5.732l5.175-5.291l3.96,5.291c1.509,2.063,2.045,3.754,0.43,5.732h29.769
		c-1.458-1.979-0.793-3.669,0.876-5.732l4.369-5.291l4.772,5.291c1.82,2.063,2.609,3.754,1.3,5.732h15.908l-16.583-17.555
		l12.73-15.381H138.33c1.355,1.552,0.828,2.899-0.628,4.599l-4.002,4.599l-4.354-4.599c-1.576-1.7-2.201-3.047-0.954-4.599h-26.136
		c1.119,1.552,0.386,2.899-1.323,4.599l-4.705,4.599l-3.651-4.599c-1.317-1.7-2.004-3.05-0.526-4.6h-5.694
		c3.079-0.94,6.219-2.002,9.246-3.009c10.02-3.331,21.372-7.104,34.86-7.645c19.254-0.773,34.132,5.22,41.863,10.015
		c1.971,1.222,4.251,2.849,6.577,4.611l8.39,6.766l0.04,4.645l-11.251,17.555h15.908c-1.911-1.979-1.638-3.669-0.441-5.732
		l3.158-5.291l13.945,12.334c2.428,2.176,3.69,3.951,2.872,6.042H227.866z"/>
	<path style="fill:#FFFFFF;" d="M92.66,73.448l0.006-2.468l3.362-1.13c0.257-0.086,0.498-0.059,0.694,0.081
		c0.225,0.159,0.361,0.456,0.364,0.792v0.025c-0.011,0.754-0.377,1.254-1.185,1.618C95.897,72.366,92.66,73.448,92.66,73.448
		 M99.237,70.377c-0.002-0.927-0.323-1.668-0.907-2.087c-0.643-0.46-1.549-0.512-2.625-0.152l-6.121,2.033l-0.105,0.405l0.915,0.404
		l0.003,6.621l-0.543,0.605l0.195,0.332l3.53-1.174v-0.396l-0.916-0.139l-0.001-1.516l3.17-1.064
		c2.207-0.738,3.384-2.055,3.406-3.811C99.237,70.418,99.237,70.399,99.237,70.377z"/>
	<polyline style="fill:#FFFFFF;" points="110.249,70.15 109.803,69.991 109.137,71.238 104.102,72.686 104.102,70.806 
		107.195,69.965 107.505,70.434 107.816,70.306 107.822,67.909 107.503,67.806 107.191,68.343 104.102,69.166 104.106,67.48 
		108.742,66.203 109.407,66.994 109.763,66.735 109.255,64.327 101.044,66.594 100.94,66.991 101.812,67.447 101.819,74.158 
		101.316,74.735 101.511,75.077 110.059,72.654 110.249,70.15 	"/>
	<path style="fill:#FFFFFF;" d="M115.543,66.719l-0.007-2.072l2.652-0.46c0.755-0.132,1.299-0.081,1.572,0.149
		c0.154,0.127,0.228,0.313,0.23,0.566c0,0.7-0.605,1.145-1.85,1.363L115.543,66.719 M123.009,69.93l-1.125-0.446
		c0,0-1.305-1.424-1.807-1.978c1.451-0.593,2.219-1.53,2.226-2.813v-0.009c0-0.796-0.256-1.412-0.758-1.835
		c-0.651-0.548-1.678-0.719-2.969-0.494l-6.156,1.06l-0.083,0.385l0.926,0.557l-0.005,6.826l-0.542,0.519l0.197,0.37l3.575-0.626
		v-0.401l-0.946-0.445l-0.005-2.161l2.062-0.36l1.896,2.075l-0.458,0.433l0.199,0.37l3.772-0.624V69.93z"/>
	<path style="fill:#FFFFFF;" d="M140.297,67.199c-0.008,0.694-0.616,1.04-1.808,1.024l-2.837-0.038l0.002-2.099l2.837,0.035
		c0.825,0.012,1.806,0.207,1.806,1.07V67.199 M140.042,63.797c0,0.212-0.067,0.38-0.203,0.517c-0.252,0.25-0.729,0.381-1.348,0.371
		l-2.839-0.034l0.002-1.871l2.835,0.039c0.752,0.011,1.553,0.272,1.553,0.972V63.797z M140.869,65.468
		c0.637-0.283,1.286-0.767,1.288-1.764c-0.004-1.53-1.454-2.427-3.983-2.462l-5.543-0.076l-0.108,0.379l0.913,0.743v6.804
		l-0.533,0.418l0.164,0.351l5.962,0.088c1.186,0.016,2.126-0.285,2.725-0.872c0.408-0.402,0.625-0.918,0.627-1.492v-0.005
		C142.38,66.587,141.852,65.889,140.869,65.468z"/>
	<path style="fill:#FFFFFF;" d="M152.887,67.984c-0.079,0.615-0.367,1.106-0.86,1.458c-0.665,0.474-1.677,0.638-2.64,0.427
		c-1.572-0.349-3.079-1.689-2.866-3.327c0.075-0.613,0.365-1.104,0.86-1.455c0.665-0.475,1.679-0.639,2.636-0.427
		C151.589,65.01,153.096,66.35,152.887,67.984 M150.288,62.812c-1.611-0.356-3.298-0.087-4.406,0.702
		c-0.845,0.602-1.365,1.498-1.506,2.594c-0.368,2.885,2.168,5.045,4.745,5.612c1.607,0.356,3.294,0.086,4.402-0.705
		c0.847-0.602,1.367-1.499,1.506-2.594C155.397,65.535,152.861,63.376,150.288,62.812z"/>
	<path style="fill:#FFFFFF;" d="M168.818,68.615c0,0-0.375,0.269-0.375,0.27c-0.002-0.001,0.282,0.603,0.282,0.603
		c-0.004,0.008-2.081,3.654-2.081,3.654l-1.257-5.063l0.387-0.594l-3.237-1.123l0.247,1.097l-2.21,3.446l-1.073-4.609l0.588-0.266
		l-0.165-0.443l-3.488-1.198l-0.11,0.355l0.913,0.984l1.723,7.085l-0.547,0.24l0.197,0.466l3.078,1.043l0.264-0.337l-0.588-0.645
		l2.448-3.627l1.332,5.118l-0.932,0.136l-0.087,0.388l3.2,1.327l0.418-0.304l-0.353-0.668l3.141-5.275l1.256-0.201l0.067-0.386
		L168.818,68.615"/>
	<polyline style="fill:#FFFFFF;" points="179.607,80.397 178.497,80.816 175.066,78.559 176.743,73.391 177.358,73.227 
		177.438,72.783 173.865,70.961 173.52,71.238 174.137,72.354 172.269,78.084 171.649,78.181 171.711,78.672 178.503,83.055 
		180.014,80.669 179.607,80.397 	"/>
	<path style="fill:#FFFFFF;" d="M83.781,72.194l-0.032,0.377l0.842,0.422l0.017,4.388c-0.002,1.117-0.7,1.779-2.414,2.286
		c-1.013,0.301-1.665,0.33-1.99,0.085c-0.207-0.153-0.308-0.433-0.308-0.857l-0.009-4.514l0.64-0.8l-0.122-0.333l-3.359,0.963
		l-0.093,0.256l0.72,0.562c0,0.003-0.002,4.33-0.002,4.33c-0.001,1.03,0.252,1.721,0.778,2.114c0.7,0.524,1.869,0.504,3.791-0.063
		c2.678-0.792,4.46-1.876,4.468-4.61L86.7,72.378l0.791-0.836l-0.188-0.446L83.781,72.194"/>
	<path style="fill:#FFFFFF;" d="M70.637,77.593c-1.431-0.007-2.303-0.058-2.342-0.689c-0.028-0.516,0.917-0.844,1.864-0.901
		c1.16-0.071,2.453,0.354,2.708,0.696c-0.006-0.006,0.181,0.511,0.181,0.511l0.502-0.089l1.287-2.51l-0.414-0.083l-0.679,0.336
		c0,0-0.276-0.079-0.571-0.167c-0.662-0.2-1.664-0.502-3.168-0.411c-2.772,0.166-3.932,1.651-3.851,3.047
		c0.148,2.44,2.485,2.414,4.361,2.392c1.384-0.016,2.226,0.017,2.263,0.603c0.009,0.147-0.04,0.278-0.148,0.402
		c-0.424,0.478-1.6,0.668-2.164,0.7c-1.011,0.062-2.386-0.324-2.632-0.684c0.003,0.003-0.234-0.5-0.234-0.5l-0.49,0.137
		l-1.008,2.565l0.418,0.042l0.614-0.444c0,0,0.109,0.076,0.322,0.158c0.532,0.205,1.421,0.547,3.145,0.444
		c2.174-0.135,4.452-1.037,4.326-3.17C74.784,77.616,72.484,77.604,70.637,77.593"/>
	<path style="fill:#87AFDD;" d="M192.905,120.055c0.002,0.002,0.004,0.002,0.006,0.004c-6.044-2.012-14.054-2.941-22.905-2.418
		c-1.4,0.083-12.267,0.485-25.943,5.274c-42.518,14.889-70.866,5.996-91.481-4.499c19.909,15.732,54.618,24.607,98.796,9.392
		c23.238-7.999,35.434-9.303,49.231-3.406c-2.286-1.533-4.855-3.022-7.702-4.347C192.905,120.055,192.905,120.055,192.905,120.055"
		/>
	<g>
		<path style="fill:#FFFFFF;" d="M198.323,76.712c1.704,1.472,1.501,2.765,0.503,4.393l-7.522,11.568l1.688,6.303l11.509-18.607
			L198.323,76.712 M227.866,123.76l-10.698-3.713l-24.176-21.07l1.715,6.411l13.762,12.143c2.429,2.172,3.928,4.034,3.056,6.229
			H227.866z M172.326,82.835c-7.731-4.795-22.609-10.788-41.863-10.015c-13.489,0.542-24.841,4.314-34.86,7.645
			c-4.644,1.543-9.549,3.217-14.101,4.383l-1.853,0.45c-2.806,0.639-5.437,1.041-7.734,1.041c-2.398,0-4.679-0.162-5.784-0.336
			c-6.723-0.896-7.278-3.581-7.278-3.581l0.007-12.485c0,0,0.94,0.598,1.592,0.862c8.743,3.566,19.082-0.018,30.859-3.982
			c10.699-3.604,22.822-7.691,37.011-7.87c33.919-0.433,51.04,11.134,56.826,16.125c3.015,2.598,3.64,4.271,3.64,4.915
			c0,0.086-0.01,0.154-0.027,0.202c-0.004,0-2.131,3.791-3.896,6.953c0,0,0.353,0.35,0.623,0.582
			c0.271,0.231,0.712,0.611,0.712,0.611l4.104-7.347c0.234-0.403,1.207-2.724-4.019-7.231c-5.936-5.123-23.468-16.986-57.986-16.546
			c-14.459,0.184-26.724,4.315-37.544,7.959c-11.458,3.858-21.12,7.117-29.489,4.037c-2.372-0.873-3.038-3.366-3.038-3.366
			l-0.958,0.152l0.002,17.073c0,0,0.959,3.499,7.355,4.509l-5.983,5.099l-1.648,6.303l-11.547-18.6l-7.474-3.665l13.379,22.16
			L22.081,123.76l16.343,0.004l-5.605-3.717l24.176-21.07l-1.749,6.411l3.167,5.309c1.187,2.062,1.456,3.734-0.457,5.715h29.918
			l-5.048-4.906l12.652-12.528l-9.243-12.119l-2.139-0.907c3.97-1.116,8.103-2.521,12.057-3.836
			c9.909-3.292,21.138-7.026,34.38-7.558c15.533-0.621,26.804,3.416,35.048,7.101c8.244,3.684,21.752,17.2,21.752,17.2
			l-10.568,16.493c-2.019-0.31-4.754-0.702-6.908-0.897l-4.782-3.563l-3.752-24.252l-6.26-3.162
			c1.085,0.834,1.843,1.909,2.009,3.172l3.503,25.585c0.085,0.619,0.063,1.232-0.066,1.814c-2.744,0.012-5.743,0.141-8.371,0.425
			l-7.222-3.492l-10.984-12.008l0.236,6.415l4.772,5.291c2.479,2.773,2.438,4.397,0.741,6.512l-0.045,0.014
			c-36.75,13.78-64.493,9.813-87.054,1.212c20.78,10.579,47.079,20.165,92.357,4.267c17.987-6.316,36.506-6.438,47.973-2.624
			c-2.538-1.178-5.781-2.553-10.617-3.646l9.696-0.002l-6.384-5.405l7.386-12.029C192.992,98.977,180.058,87.631,172.326,82.835z
			 M89.85,98.854L72.685,115.67l-8.332-4.646l-7.358-12.047l12.769-10.933c0.664,0.021,1.403,0.033,2.14,0.033
			c2.648,0,5.721-0.512,8.929-1.281L89.85,98.854z M138.33,83.476c1.365,1.544,0.793,2.867-0.653,4.568l-3.995,4.609l0.249,6.319
			L144.41,86.75L138.33,83.476z M102.256,83.476c1.122,1.547,0.351,2.951-1.352,4.652l-4.676,4.546l-0.749,6.303l12.428-12.215
			L102.256,83.476z M98.723,110.679c1.512,2.063,2.04,3.752,0.43,5.732h29.769l-5.426-5.297l10.435-12.142l-11.083-12.074
			l-8.427-3.423l13.873,15.396l-14.628,16.788l-9.101-4.68l-9.086-12.004l-0.716,6.411L98.723,110.679z"/>
		<path style="fill:#FFFFFF;" d="M152.863,133.742c-45.972,15.069-81.065,6.233-102.947-12.837l-3.495,3.083
			c-1.333,1.233-1.557,2.549-1.384,3.603H11.104L45.78,97.578l-16.8-28.268h0.005L28.98,69.31
			c0.121-0.029,18.345-4.401,28.037-5.978c1.062-0.97,11.493-10.491,11.493-10.491l0.706-0.263c0.027-0.009,2.573-0.954,6.815-2.263
			c0-3.191,0-16.687,0-16.687h7.492l3.188,3.037c0,0,0,6.376,0,10.672c10.318-2.59,24.407-5.298,38.267-5.298
			c13.859,0,27.948,2.708,38.263,5.299c0-4.295,0-10.67,0-10.67l3.19-3.036h7.492c0,0,0,13.492,0,16.683
			c4.243,1.309,6.788,2.253,6.816,2.263l0.704,0.263c0,0,10.432,9.521,11.493,10.491c9.691,1.577,27.918,5.949,28.036,5.978
			l-16.853,28.262l34.766,30.016l-33.612,0.004C187.865,122.568,177.23,125.754,152.863,133.742 M207.05,97.099
			c1.736-2.91,17.457-29.272,17.457-29.272s-20.662-4.961-30.532-6.627c-0.909-0.829-11.321-10.333-11.321-10.333
			s-3.098-1.155-6.457-2.223c0-2.808,0-17.287,0-17.287h-10.674l-4.554,4.336c0,0,0,5.105,0,8.753
			c-9.631-2.274-22.899-4.68-35.991-4.68c-13.093,0-26.361,2.405-35.993,4.679c0-3.648,0-8.753,0-8.753l-4.551-4.337H73.757
			c0,0,0,14.481,0,17.29c-3.349,1.066-6.454,2.22-6.454,2.22s-10.415,9.506-11.324,10.334c-9.973,1.682-30.528,6.625-30.528,6.625
			l17.402,29.276L5,129.863h42.717c0,0-0.664-1.698-0.438-2.845c0.274-1.402,2.673-3.112,2.673-3.112
			c5.384,4.458,11.38,8.237,17.863,11.234c7.469,3.45,15.607,5.885,24.187,7.232c18.769,2.947,39.484,0.769,61.569-6.471
			c25.15-8.244,34.685-10.854,51.072-6.128l0.312,0.089L245,129.859C245,129.859,209.705,99.389,207.05,97.099z"/>
	</g>
</g>
</svg>
