<svg xmlns="http://www.w3.org/2000/svg" data-name="SET 2 ICONS" viewBox="0 0 100 125" x="0px" y="0px">
<title>NP_Iconography-Set 2</title>
<g>
<path fill="#FFFFFF" d="M19.14,35.26l.75.75a1.23,1.23,0,0,0,1.72,0l5-5,5,5a1.2,1.2,0,0,0,.86.35,1.19,1.19,0,0,0,.86-.35l.75-.75a1.21,1.21,0,0,0,0-1.72l-5-5,5-5a1.21,1.21,0,0,0,0-1.72l-.75-.75a1.21,1.21,0,0,0-1.72,0l-5,5-5-5a1.21,1.21,0,0,0-1.72,0l-.75.75a1.23,1.23,0,0,0,0,1.72l5,5-5,5A1.23,1.23,0,0,0,19.14,35.26Z"/>
<path fill="#FFFFFF" d="M56.37,70.9a1.23,1.23,0,0,0,0-1.72l-.75-.74a1.21,1.21,0,0,0-1.72,0l-4.84,4.83a.2.2,0,0,1-.15.07.23.23,0,0,1-.16-.07l-4.83-4.83a1.21,1.21,0,0,0-1.72,0l-.75.74a1.23,1.23,0,0,0,0,1.72l4.84,4.84a.25.25,0,0,1,.06.16.22.22,0,0,1-.06.15l-4.84,4.84a1.23,1.23,0,0,0,0,1.72l.75.75a1.23,1.23,0,0,0,1.72,0l4.83-4.84a.21.21,0,0,1,.16-.06.18.18,0,0,1,.15.06l4.84,4.84a1.23,1.23,0,0,0,1.72,0l.75-.75a1.23,1.23,0,0,0,0-1.72l-4.84-4.84a.22.22,0,0,1-.06-.15.25.25,0,0,1,.06-.16Z"/>
<path fill="#FFFFFF" d="M81.42,48.66a.23.23,0,0,1-.07-.16.2.2,0,0,1,.07-.15l4.83-4.84a1.21,1.21,0,0,0,0-1.72L85.5,41a1.23,1.23,0,0,0-1.72,0L79,45.88a.25.25,0,0,1-.16.06.22.22,0,0,1-.15-.06L73.8,41a1.23,1.23,0,0,0-1.72,0l-.75.75a1.23,1.23,0,0,0,0,1.72l4.84,4.84a.22.22,0,0,1,.06.15.26.26,0,0,1-.06.16l-4.84,4.83a1.23,1.23,0,0,0,0,1.72l.75.75a1.23,1.23,0,0,0,1.72,0l4.84-4.84a.22.22,0,0,1,.15-.06.25.25,0,0,1,.16.06L83.78,56a1.21,1.21,0,0,0,.86.36A1.18,1.18,0,0,0,85.5,56l.75-.75a1.21,1.21,0,0,0,0-1.72Z"/>
<path fill="#FFFFFF" d="M81.88,21.15a1.21,1.21,0,0,0-.92-.91h0L63.37,16.32a1.22,1.22,0,0,0-1.25,1.9l3.68,5.1A88.19,88.19,0,0,0,41.42,37.38C32.85,44.44,26.64,52.56,23,61.52A9.59,9.59,0,0,0,16.27,78a9.6,9.6,0,1,0,10.2-15.8C30,54,35.78,46.52,43.72,40A84.61,84.61,0,0,1,66.36,26.85l-1,5.59a1.21,1.21,0,0,0,2,1.17L81.45,22.38A1.23,1.23,0,0,0,81.88,21.15ZM27.27,66.75A6.13,6.13,0,1,1,23,65,6.12,6.12,0,0,1,27.27,66.75Z"/>
</g>
</svg>